<svg width="30" height="30" viewBox="0 0 30 30" fill="none" xmlns="http://www.w3.org/2000/svg">
<path d="M11.8613 1.42645C11.8613 -0.475482 18.4121 -0.475482 18.4121 1.42645V12.1725C19.3321 12.012 20.2295 11.9313 21.0186 11.9313C24.6112 11.9314 30 13.5962 30 16.9245V28.5729C30 30.4749 23.4492 30.4749 23.4492 28.5729V17.7243C23.4492 16.5356 23.0393 15.822 20.7939 15.822C18.5485 15.822 18.1387 16.5356 18.1387 17.7243V28.5729C18.1387 30.4749 11.5879 30.4749 11.5879 28.5729V17.8259C10.6679 17.9864 9.77048 18.068 8.98145 18.068C5.38892 18.068 0.000495059 16.4038 0 13.0759V1.42645C0 -0.475478 6.55176 -0.475478 6.55176 1.42645V12.2751C6.55176 13.4637 6.9608 14.1774 9.20605 14.1774C11.4515 14.1774 11.8613 13.4638 11.8613 12.2751V1.42645Z" fill="#6EE7B7"/>
</svg>
