<svg width="48" height="48" viewBox="0 0 48 48" fill="none" xmlns="http://www.w3.org/2000/svg">
<path d="M18.9775 2.2827C18.9775 -0.760414 29.46 -0.760413 29.46 2.2827V19.4761C30.9317 19.2193 32.3676 19.0913 33.6299 19.0913C39.3782 19.0914 48 21.7543 48 27.0796V45.7183C48 48.7614 37.5176 48.7614 37.5176 45.7183V28.3589C37.5175 26.4572 36.8627 25.316 33.2705 25.3159C29.678 25.3159 29.0225 26.4571 29.0225 28.3589V45.7183C29.0225 48.7614 18.54 48.7614 18.54 45.7183V28.5239C17.0684 28.7807 15.6332 28.9096 14.3711 28.9097C8.62279 28.9097 0 26.2468 0 20.9214V2.2827C0 -0.760407 10.4824 -0.760407 10.4824 2.2827V19.6411C10.4824 21.543 11.1378 22.685 14.7305 22.685C18.3228 22.685 18.9775 21.543 18.9775 19.6411V2.2827Z" fill="#E7D7EC"/>
</svg>
